<mxfile host="app.diagrams.net" modified="2022-02-19T12:38:15.752Z" agent="5.0 (Windows NT 10.0; Win64; x64) AppleWebKit/537.36 (KHTML, like Gecko) Chrome/98.0.4758.102 Safari/537.36" etag="cAcLhMSWE6LqxkhtOy-H" version="16.6.1" type="github">
  <diagram id="ghnddLFbfy9oVSA8fj-k" name="Page-1">
    <mxGraphModel dx="1210" dy="607" grid="0" gridSize="10" guides="1" tooltips="1" connect="1" arrows="1" fold="1" page="1" pageScale="1" pageWidth="1200" pageHeight="1600" math="0" shadow="0">
      <root>
        <mxCell id="0" />
        <mxCell id="1" parent="0" />
        <mxCell id="40RV0zLQPxrocBuq1c4G-4" style="edgeStyle=orthogonalEdgeStyle;rounded=0;orthogonalLoop=1;jettySize=auto;html=1;exitX=0.5;exitY=1;exitDx=0;exitDy=0;exitPerimeter=0;" edge="1" parent="1" source="40RV0zLQPxrocBuq1c4G-1">
          <mxGeometry relative="1" as="geometry">
            <mxPoint x="582" y="115.01171875" as="targetPoint" />
          </mxGeometry>
        </mxCell>
        <mxCell id="40RV0zLQPxrocBuq1c4G-1" value="Start" style="strokeWidth=2;html=1;shape=mxgraph.flowchart.start_1;whiteSpace=wrap;" vertex="1" parent="1">
          <mxGeometry x="532" y="23" width="100" height="60" as="geometry" />
        </mxCell>
        <mxCell id="40RV0zLQPxrocBuq1c4G-5" style="edgeStyle=orthogonalEdgeStyle;rounded=0;orthogonalLoop=1;jettySize=auto;html=1;exitX=0.5;exitY=1;exitDx=0;exitDy=0;entryX=0.5;entryY=0;entryDx=0;entryDy=0;entryPerimeter=0;" edge="1" parent="1" source="40RV0zLQPxrocBuq1c4G-2" target="40RV0zLQPxrocBuq1c4G-3">
          <mxGeometry relative="1" as="geometry" />
        </mxCell>
        <mxCell id="40RV0zLQPxrocBuq1c4G-2" value="Read i, sum = 0" style="shape=parallelogram;html=1;strokeWidth=2;perimeter=parallelogramPerimeter;whiteSpace=wrap;rounded=1;arcSize=12;size=0.23;" vertex="1" parent="1">
          <mxGeometry x="424" y="119" width="295" height="44" as="geometry" />
        </mxCell>
        <mxCell id="40RV0zLQPxrocBuq1c4G-7" style="edgeStyle=orthogonalEdgeStyle;rounded=0;orthogonalLoop=1;jettySize=auto;html=1;exitX=0.5;exitY=1;exitDx=0;exitDy=0;exitPerimeter=0;entryX=0.5;entryY=0;entryDx=0;entryDy=0;" edge="1" parent="1" source="40RV0zLQPxrocBuq1c4G-3" target="40RV0zLQPxrocBuq1c4G-6">
          <mxGeometry relative="1" as="geometry" />
        </mxCell>
        <mxCell id="40RV0zLQPxrocBuq1c4G-16" style="edgeStyle=orthogonalEdgeStyle;rounded=0;orthogonalLoop=1;jettySize=auto;html=1;exitX=1;exitY=0.5;exitDx=0;exitDy=0;exitPerimeter=0;" edge="1" parent="1" source="40RV0zLQPxrocBuq1c4G-3">
          <mxGeometry relative="1" as="geometry">
            <mxPoint x="572.265625" y="456.26171875" as="targetPoint" />
            <Array as="points">
              <mxPoint x="842" y="270" />
              <mxPoint x="842" y="456" />
            </Array>
          </mxGeometry>
        </mxCell>
        <mxCell id="40RV0zLQPxrocBuq1c4G-3" value="Is i &amp;gt;=0" style="strokeWidth=2;html=1;shape=mxgraph.flowchart.decision;whiteSpace=wrap;" vertex="1" parent="1">
          <mxGeometry x="521.5" y="220" width="100" height="100" as="geometry" />
        </mxCell>
        <mxCell id="40RV0zLQPxrocBuq1c4G-11" style="edgeStyle=orthogonalEdgeStyle;rounded=0;orthogonalLoop=1;jettySize=auto;html=1;exitX=0;exitY=0.5;exitDx=0;exitDy=0;" edge="1" parent="1" source="40RV0zLQPxrocBuq1c4G-6">
          <mxGeometry relative="1" as="geometry">
            <mxPoint x="569.765625" y="187.51171875" as="targetPoint" />
            <Array as="points">
              <mxPoint x="366" y="386" />
              <mxPoint x="366" y="188" />
            </Array>
          </mxGeometry>
        </mxCell>
        <mxCell id="40RV0zLQPxrocBuq1c4G-13" style="edgeStyle=orthogonalEdgeStyle;rounded=0;orthogonalLoop=1;jettySize=auto;html=1;exitX=0.5;exitY=1;exitDx=0;exitDy=0;entryX=0.581;entryY=-0.006;entryDx=0;entryDy=0;entryPerimeter=0;" edge="1" parent="1" source="40RV0zLQPxrocBuq1c4G-6" target="40RV0zLQPxrocBuq1c4G-12">
          <mxGeometry relative="1" as="geometry" />
        </mxCell>
        <mxCell id="40RV0zLQPxrocBuq1c4G-6" value="Sum = Sum + i" style="rounded=1;whiteSpace=wrap;html=1;absoluteArcSize=1;arcSize=14;strokeWidth=2;" vertex="1" parent="1">
          <mxGeometry x="485.75" y="363" width="171.5" height="45" as="geometry" />
        </mxCell>
        <mxCell id="40RV0zLQPxrocBuq1c4G-8" value="True" style="text;html=1;align=center;verticalAlign=middle;resizable=0;points=[];autosize=1;strokeColor=none;fillColor=none;" vertex="1" parent="1">
          <mxGeometry x="571" y="321" width="34" height="18" as="geometry" />
        </mxCell>
        <mxCell id="40RV0zLQPxrocBuq1c4G-15" style="edgeStyle=orthogonalEdgeStyle;rounded=0;orthogonalLoop=1;jettySize=auto;html=1;exitX=0.5;exitY=1;exitDx=0;exitDy=0;entryX=0.5;entryY=0;entryDx=0;entryDy=0;entryPerimeter=0;" edge="1" parent="1" source="40RV0zLQPxrocBuq1c4G-12" target="40RV0zLQPxrocBuq1c4G-14">
          <mxGeometry relative="1" as="geometry" />
        </mxCell>
        <mxCell id="40RV0zLQPxrocBuq1c4G-12" value="Print (Sum)" style="shape=parallelogram;html=1;strokeWidth=2;perimeter=parallelogramPerimeter;whiteSpace=wrap;rounded=1;arcSize=12;size=0.23;" vertex="1" parent="1">
          <mxGeometry x="482" y="474" width="154" height="38" as="geometry" />
        </mxCell>
        <mxCell id="40RV0zLQPxrocBuq1c4G-14" value="END" style="strokeWidth=2;html=1;shape=mxgraph.flowchart.start_1;whiteSpace=wrap;" vertex="1" parent="1">
          <mxGeometry x="509" y="553" width="100" height="60" as="geometry" />
        </mxCell>
        <mxCell id="40RV0zLQPxrocBuq1c4G-17" value="False" style="text;html=1;align=center;verticalAlign=middle;resizable=0;points=[];autosize=1;strokeColor=none;fillColor=none;" vertex="1" parent="1">
          <mxGeometry x="712" y="248" width="39" height="18" as="geometry" />
        </mxCell>
      </root>
    </mxGraphModel>
  </diagram>
</mxfile>
